            <svg
              width="24"
              height="24"
              viewBox="0 0 24 24"
              fill="none"
              xmlns="http://www.w3.org/2000/svg"
            >
              <style>
                @keyframes slide-top {
                  0% {
                    transform: rotate(0);
                  }
                  to {
                    transform: rotate(-10deg);
                  }
                }
              </style>
              <path
                d="M7.01 8l10.022-1.947-.022 4-10-.053V8z"
                fill="#242424"
                style="
                  animation: slide-top 1.5s
                    cubic-bezier(0.81, -0.21, 0.22, 1.26) infinite alternate;
                  transform-origin: left center;
                "
              />
              <path
                d="M7 6a2 2 0 00-2 2v8a2 2 0 002 2h10a2 2 0 002-2v-2h-4a2 2 0 110-4h4V8a2 2 0 00-2-2H7z"
                fill="#242424"
              />
              <path d="M16 12a1 1 0 11-2 0 1 1 0 012 0z" fill="#242424" />
            </svg>